<?xml version="1.0" standalone="no"?><svg xmlns="http://www.w3.org/2000/svg" viewBox="0 0 1440 320"><path fill="#5000ca" fill-opacity="1" d="M0,128L13.3,138.7C26.7,149,53,171,80,160C106.7,149,133,107,160,74.7C186.7,43,213,21,240,32C266.7,43,293,85,320,90.7C346.7,96,373,64,400,58.7C426.7,53,453,75,480,106.7C506.7,139,533,181,560,213.3C586.7,245,613,267,640,266.7C666.7,267,693,245,720,213.3C746.7,181,773,139,800,117.3C826.7,96,853,96,880,106.7C906.7,117,933,139,960,149.3C986.7,160,1013,160,1040,144C1066.7,128,1093,96,1120,80C1146.7,64,1173,64,1200,101.3C1226.7,139,1253,213,1280,245.3C1306.7,277,1333,267,1360,261.3C1386.7,256,1413,256,1427,256L1440,256L1440,0L1426.7,0C1413.3,0,1387,0,1360,0C1333.3,0,1307,0,1280,0C1253.3,0,1227,0,1200,0C1173.3,0,1147,0,1120,0C1093.3,0,1067,0,1040,0C1013.3,0,987,0,960,0C933.3,0,907,0,880,0C853.3,0,827,0,800,0C773.3,0,747,0,720,0C693.3,0,667,0,640,0C613.3,0,587,0,560,0C533.3,0,507,0,480,0C453.3,0,427,0,400,0C373.3,0,347,0,320,0C293.3,0,267,0,240,0C213.3,0,187,0,160,0C133.3,0,107,0,80,0C53.3,0,27,0,13,0L0,0Z"></path></svg>